# xmcd
#
# Track frame offsets:
#       150
#       13225
#       30762
#       43705
#       53850
#       66265
#       84962
#       97672
#       108985
#       121890
#       133095
#       144432
#       159625
#       171545
#
# Disc length: 2430 seconds
#
# Revision: 1
# Processed by: cddbd v1.5.1PL0 Copyright (c) Steve Scherf et al.
# Submitted via: MusiCat 1.1
#
DISCID=b3097c0e
DTITLE=Agostinho Silva e sua Orquestra - Tangos
DYEAR=1900
DGENRE=
TTITLE0=La cumparsita
TTITLE1=Uno
TTITLE2=Volver
TTITLE3=A media luz
TTITLE4=Caminito
TTITLE5=El dia que me quieras
TTITLE6=Percal
TTITLE7=Mano a Mano
TTITLE8=Cuesta  Abajo
TTITLE9=Cruel desilusion
TTITLE10=Adios muchachos
TTITLE11=El choclo
TTITLE12=História de un amor
TTITLE13=Mentira
EXTD=\n\n
EXTT0=
EXTT1=
EXTT2=
EXTT3=
EXTT4=
EXTT5=
EXTT6=
EXTT7=
EXTT8=
EXTT9=
EXTT10=
EXTT11=
EXTT12=
EXTT13=
PLAYORDER=
